<mxfile host="app.diagrams.net" modified="2020-05-21T07:01:31.041Z" agent="5.0 (Macintosh; Intel Mac OS X 10_15_3) AppleWebKit/537.36 (KHTML, like Gecko) Chrome/81.0.4044.138 Safari/537.36" etag="EQ1lrLX51cjlOcmyzgBq" version="13.1.3" type="github">
  <diagram id="18uPsYCW1CXx2MfYo5Co" name="Page-1">
    <mxGraphModel dx="1186" dy="637" grid="1" gridSize="10" guides="1" tooltips="1" connect="1" arrows="1" fold="1" page="1" pageScale="1" pageWidth="827" pageHeight="1169" math="0" shadow="0">
      <root>
        <mxCell id="0" />
        <mxCell id="1" parent="0" />
        <mxCell id="3ec4w3cwO1-WBTdr7BWn-1" value="数据目录服务" style="rounded=1;whiteSpace=wrap;html=1;" parent="1" vertex="1">
          <mxGeometry x="170" y="310" width="106" height="50" as="geometry" />
        </mxCell>
        <mxCell id="3ec4w3cwO1-WBTdr7BWn-8" value="privpy计算机群" style="rounded=1;whiteSpace=wrap;html=1;" parent="1" vertex="1">
          <mxGeometry x="608" y="309" width="106" height="50" as="geometry" />
        </mxCell>
        <mxCell id="3ec4w3cwO1-WBTdr7BWn-5" value="TM" style="rounded=1;whiteSpace=wrap;html=1;" parent="1" vertex="1">
          <mxGeometry x="388" y="309" width="106" height="50" as="geometry" />
        </mxCell>
        <mxCell id="3ec4w3cwO1-WBTdr7BWn-2" value="IDE" style="rounded=1;whiteSpace=wrap;html=1;" parent="1" vertex="1">
          <mxGeometry x="361" y="120" width="106" height="50" as="geometry" />
        </mxCell>
        <mxCell id="3ec4w3cwO1-WBTdr7BWn-11" value="3、发送DEBUG请求" style="endArrow=classic;html=1;entryX=0.25;entryY=0;entryDx=0;entryDy=0;exitX=0.5;exitY=1;exitDx=0;exitDy=0;" parent="1" target="3ec4w3cwO1-WBTdr7BWn-5" edge="1">
          <mxGeometry x="0.1301" y="-25" width="50" height="50" relative="1" as="geometry">
            <mxPoint x="414" y="171" as="sourcePoint" />
            <mxPoint x="416.5" y="271" as="targetPoint" />
            <mxPoint as="offset" />
          </mxGeometry>
        </mxCell>
        <mxCell id="3ec4w3cwO1-WBTdr7BWn-12" value="2、请求数据集列表和meta信息，&lt;br&gt;请求类型为测试数据" style="endArrow=classic;html=1;exitX=0.25;exitY=1;exitDx=0;exitDy=0;entryX=0.5;entryY=0;entryDx=0;entryDy=0;" parent="1" source="3ec4w3cwO1-WBTdr7BWn-2" target="3ec4w3cwO1-WBTdr7BWn-1" edge="1">
          <mxGeometry x="0.5591" y="1" width="50" height="50" relative="1" as="geometry">
            <mxPoint x="450" y="390" as="sourcePoint" />
            <mxPoint x="500" y="340" as="targetPoint" />
            <mxPoint as="offset" />
          </mxGeometry>
        </mxCell>
        <mxCell id="3ec4w3cwO1-WBTdr7BWn-13" value="" style="endArrow=classic;html=1;entryX=0;entryY=0.5;entryDx=0;entryDy=0;" parent="1" source="3ec4w3cwO1-WBTdr7BWn-5" target="3ec4w3cwO1-WBTdr7BWn-8" edge="1">
          <mxGeometry width="50" height="50" relative="1" as="geometry">
            <mxPoint x="450" y="390" as="sourcePoint" />
            <mxPoint x="500" y="340" as="targetPoint" />
            <Array as="points" />
          </mxGeometry>
        </mxCell>
        <mxCell id="3ec4w3cwO1-WBTdr7BWn-14" value="4、调度任务" style="edgeLabel;html=1;align=center;verticalAlign=middle;resizable=0;points=[];" parent="3ec4w3cwO1-WBTdr7BWn-13" vertex="1" connectable="0">
          <mxGeometry x="-0.48" y="-2" relative="1" as="geometry">
            <mxPoint x="24" y="8" as="offset" />
          </mxGeometry>
        </mxCell>
        <mxCell id="3ec4w3cwO1-WBTdr7BWn-17" value="" style="endArrow=classic;html=1;entryX=0.5;entryY=0;entryDx=0;entryDy=0;exitX=1;exitY=0.5;exitDx=0;exitDy=0;" parent="1" source="3ec4w3cwO1-WBTdr7BWn-2" target="3ec4w3cwO1-WBTdr7BWn-8" edge="1">
          <mxGeometry width="50" height="50" relative="1" as="geometry">
            <mxPoint x="610" y="120" as="sourcePoint" />
            <mxPoint x="500" y="340" as="targetPoint" />
          </mxGeometry>
        </mxCell>
        <mxCell id="3ec4w3cwO1-WBTdr7BWn-19" value="6、获取计算结果" style="edgeLabel;html=1;align=center;verticalAlign=middle;resizable=0;points=[];" parent="3ec4w3cwO1-WBTdr7BWn-17" vertex="1" connectable="0">
          <mxGeometry x="0.2115" y="-3" relative="1" as="geometry">
            <mxPoint as="offset" />
          </mxGeometry>
        </mxCell>
        <mxCell id="3ec4w3cwO1-WBTdr7BWn-18" value="5、获取任务状态" style="endArrow=classic;html=1;entryX=0.75;entryY=0;entryDx=0;entryDy=0;" parent="1" target="3ec4w3cwO1-WBTdr7BWn-5" edge="1">
          <mxGeometry x="-0.2561" y="14" width="50" height="50" relative="1" as="geometry">
            <mxPoint x="448" y="170" as="sourcePoint" />
            <mxPoint x="500" y="340" as="targetPoint" />
            <mxPoint as="offset" />
          </mxGeometry>
        </mxCell>
        <mxCell id="kIlI5BIzw73iB4UpW1K1-2" value="DS" style="rounded=1;whiteSpace=wrap;html=1;" vertex="1" parent="1">
          <mxGeometry x="164" y="444" width="120" height="60" as="geometry" />
        </mxCell>
        <mxCell id="kIlI5BIzw73iB4UpW1K1-5" value="1、sample数据注册到目录服务" style="endArrow=classic;html=1;exitX=0.5;exitY=0;exitDx=0;exitDy=0;entryX=0.5;entryY=1;entryDx=0;entryDy=0;" edge="1" parent="1" source="kIlI5BIzw73iB4UpW1K1-2" target="3ec4w3cwO1-WBTdr7BWn-1">
          <mxGeometry width="50" height="50" relative="1" as="geometry">
            <mxPoint x="390" y="380" as="sourcePoint" />
            <mxPoint x="440" y="330" as="targetPoint" />
          </mxGeometry>
        </mxCell>
      </root>
    </mxGraphModel>
  </diagram>
</mxfile>
